<?xml version="1.0" encoding="utf-8" standalone="no"?>
<!DOCTYPE svg PUBLIC "-//W3C//DTD SVG 1.1//EN"
  "http://www.w3.org/Graphics/SVG/1.1/DTD/svg11.dtd">
<svg xmlns:xlink="http://www.w3.org/1999/xlink" width="362.5625pt" height="197.398125pt" viewBox="0 0 362.5625 197.398125" xmlns="http://www.w3.org/2000/svg" version="1.1">
 <metadata>
  <rdf:RDF xmlns:dc="http://purl.org/dc/elements/1.1/" xmlns:cc="http://creativecommons.org/ns#" xmlns:rdf="http://www.w3.org/1999/02/22-rdf-syntax-ns#">
   <cc:Work>
    <dc:type rdf:resource="http://purl.org/dc/dcmitype/StillImage"/>
    <dc:date>2022-08-07T11:00:59.422242</dc:date>
    <dc:format>image/svg+xml</dc:format>
    <dc:creator>
     <cc:Agent>
      <dc:title>Matplotlib v3.5.0, https://matplotlib.org/</dc:title>
     </cc:Agent>
    </dc:creator>
   </cc:Work>
  </rdf:RDF>
 </metadata>
 <defs>
  <style type="text/css">*{stroke-linejoin: round; stroke-linecap: butt}</style>
 </defs>
 <g id="figure_1">
  <g id="patch_1">
   <path d="M 0 197.398125 
L 362.5625 197.398125 
L 362.5625 0 
L 0 0 
L 0 197.398125 
z
" style="fill: none"/>
  </g>
  <g id="axes_1">
   <g id="patch_2">
    <path d="M 20.5625 173.52 
L 355.3625 173.52 
L 355.3625 7.2 
L 20.5625 7.2 
L 20.5625 173.52 
z
" style="fill: none"/>
   </g>
   <g id="matplotlib.axis_1">
    <g id="xtick_1">
     <g id="line2d_1">
      <defs>
       <path id="ma836eda952" d="M 0 0 
L 0 3.5 
" style="stroke: #000000; stroke-width: 0.8"/>
      </defs>
      <g>
       <use xlink:href="#ma836eda952" x="35.780682" y="173.52" style="stroke: #000000; stroke-width: 0.8"/>
      </g>
     </g>
     <g id="text_1">
      <!-- 0 -->
      <g transform="translate(32.599432 188.118438)scale(0.1 -0.1)">
       <defs>
        <path id="DejaVuSans-30" d="M 2034 4250 
Q 1547 4250 1301 3770 
Q 1056 3291 1056 2328 
Q 1056 1369 1301 889 
Q 1547 409 2034 409 
Q 2525 409 2770 889 
Q 3016 1369 3016 2328 
Q 3016 3291 2770 3770 
Q 2525 4250 2034 4250 
z
M 2034 4750 
Q 2819 4750 3233 4129 
Q 3647 3509 3647 2328 
Q 3647 1150 3233 529 
Q 2819 -91 2034 -91 
Q 1250 -91 836 529 
Q 422 1150 422 2328 
Q 422 3509 836 4129 
Q 1250 4750 2034 4750 
z
" transform="scale(0.015625)"/>
       </defs>
       <use xlink:href="#DejaVuSans-30"/>
      </g>
     </g>
    </g>
    <g id="xtick_2">
     <g id="line2d_2">
      <g>
       <use xlink:href="#ma836eda952" x="96.665586" y="173.52" style="stroke: #000000; stroke-width: 0.8"/>
      </g>
     </g>
     <g id="text_2">
      <!-- 1000 -->
      <g transform="translate(83.940586 188.118438)scale(0.1 -0.1)">
       <defs>
        <path id="DejaVuSans-31" d="M 794 531 
L 1825 531 
L 1825 4091 
L 703 3866 
L 703 4441 
L 1819 4666 
L 2450 4666 
L 2450 531 
L 3481 531 
L 3481 0 
L 794 0 
L 794 531 
z
" transform="scale(0.015625)"/>
       </defs>
       <use xlink:href="#DejaVuSans-31"/>
       <use xlink:href="#DejaVuSans-30" x="63.623047"/>
       <use xlink:href="#DejaVuSans-30" x="127.246094"/>
       <use xlink:href="#DejaVuSans-30" x="190.869141"/>
      </g>
     </g>
    </g>
    <g id="xtick_3">
     <g id="line2d_3">
      <g>
       <use xlink:href="#ma836eda952" x="157.55049" y="173.52" style="stroke: #000000; stroke-width: 0.8"/>
      </g>
     </g>
     <g id="text_3">
      <!-- 2000 -->
      <g transform="translate(144.82549 188.118438)scale(0.1 -0.1)">
       <defs>
        <path id="DejaVuSans-32" d="M 1228 531 
L 3431 531 
L 3431 0 
L 469 0 
L 469 531 
Q 828 903 1448 1529 
Q 2069 2156 2228 2338 
Q 2531 2678 2651 2914 
Q 2772 3150 2772 3378 
Q 2772 3750 2511 3984 
Q 2250 4219 1831 4219 
Q 1534 4219 1204 4116 
Q 875 4013 500 3803 
L 500 4441 
Q 881 4594 1212 4672 
Q 1544 4750 1819 4750 
Q 2544 4750 2975 4387 
Q 3406 4025 3406 3419 
Q 3406 3131 3298 2873 
Q 3191 2616 2906 2266 
Q 2828 2175 2409 1742 
Q 1991 1309 1228 531 
z
" transform="scale(0.015625)"/>
       </defs>
       <use xlink:href="#DejaVuSans-32"/>
       <use xlink:href="#DejaVuSans-30" x="63.623047"/>
       <use xlink:href="#DejaVuSans-30" x="127.246094"/>
       <use xlink:href="#DejaVuSans-30" x="190.869141"/>
      </g>
     </g>
    </g>
    <g id="xtick_4">
     <g id="line2d_4">
      <g>
       <use xlink:href="#ma836eda952" x="218.435395" y="173.52" style="stroke: #000000; stroke-width: 0.8"/>
      </g>
     </g>
     <g id="text_4">
      <!-- 3000 -->
      <g transform="translate(205.710395 188.118438)scale(0.1 -0.1)">
       <defs>
        <path id="DejaVuSans-33" d="M 2597 2516 
Q 3050 2419 3304 2112 
Q 3559 1806 3559 1356 
Q 3559 666 3084 287 
Q 2609 -91 1734 -91 
Q 1441 -91 1130 -33 
Q 819 25 488 141 
L 488 750 
Q 750 597 1062 519 
Q 1375 441 1716 441 
Q 2309 441 2620 675 
Q 2931 909 2931 1356 
Q 2931 1769 2642 2001 
Q 2353 2234 1838 2234 
L 1294 2234 
L 1294 2753 
L 1863 2753 
Q 2328 2753 2575 2939 
Q 2822 3125 2822 3475 
Q 2822 3834 2567 4026 
Q 2313 4219 1838 4219 
Q 1578 4219 1281 4162 
Q 984 4106 628 3988 
L 628 4550 
Q 988 4650 1302 4700 
Q 1616 4750 1894 4750 
Q 2613 4750 3031 4423 
Q 3450 4097 3450 3541 
Q 3450 3153 3228 2886 
Q 3006 2619 2597 2516 
z
" transform="scale(0.015625)"/>
       </defs>
       <use xlink:href="#DejaVuSans-33"/>
       <use xlink:href="#DejaVuSans-30" x="63.623047"/>
       <use xlink:href="#DejaVuSans-30" x="127.246094"/>
       <use xlink:href="#DejaVuSans-30" x="190.869141"/>
      </g>
     </g>
    </g>
    <g id="xtick_5">
     <g id="line2d_5">
      <g>
       <use xlink:href="#ma836eda952" x="279.320299" y="173.52" style="stroke: #000000; stroke-width: 0.8"/>
      </g>
     </g>
     <g id="text_5">
      <!-- 4000 -->
      <g transform="translate(266.595299 188.118438)scale(0.1 -0.1)">
       <defs>
        <path id="DejaVuSans-34" d="M 2419 4116 
L 825 1625 
L 2419 1625 
L 2419 4116 
z
M 2253 4666 
L 3047 4666 
L 3047 1625 
L 3713 1625 
L 3713 1100 
L 3047 1100 
L 3047 0 
L 2419 0 
L 2419 1100 
L 313 1100 
L 313 1709 
L 2253 4666 
z
" transform="scale(0.015625)"/>
       </defs>
       <use xlink:href="#DejaVuSans-34"/>
       <use xlink:href="#DejaVuSans-30" x="63.623047"/>
       <use xlink:href="#DejaVuSans-30" x="127.246094"/>
       <use xlink:href="#DejaVuSans-30" x="190.869141"/>
      </g>
     </g>
    </g>
    <g id="xtick_6">
     <g id="line2d_6">
      <g>
       <use xlink:href="#ma836eda952" x="340.205203" y="173.52" style="stroke: #000000; stroke-width: 0.8"/>
      </g>
     </g>
     <g id="text_6">
      <!-- 5000 -->
      <g transform="translate(327.480203 188.118438)scale(0.1 -0.1)">
       <defs>
        <path id="DejaVuSans-35" d="M 691 4666 
L 3169 4666 
L 3169 4134 
L 1269 4134 
L 1269 2991 
Q 1406 3038 1543 3061 
Q 1681 3084 1819 3084 
Q 2600 3084 3056 2656 
Q 3513 2228 3513 1497 
Q 3513 744 3044 326 
Q 2575 -91 1722 -91 
Q 1428 -91 1123 -41 
Q 819 9 494 109 
L 494 744 
Q 775 591 1075 516 
Q 1375 441 1709 441 
Q 2250 441 2565 725 
Q 2881 1009 2881 1497 
Q 2881 1984 2565 2268 
Q 2250 2553 1709 2553 
Q 1456 2553 1204 2497 
Q 953 2441 691 2322 
L 691 4666 
z
" transform="scale(0.015625)"/>
       </defs>
       <use xlink:href="#DejaVuSans-35"/>
       <use xlink:href="#DejaVuSans-30" x="63.623047"/>
       <use xlink:href="#DejaVuSans-30" x="127.246094"/>
       <use xlink:href="#DejaVuSans-30" x="190.869141"/>
      </g>
     </g>
    </g>
   </g>
   <g id="matplotlib.axis_2">
    <g id="ytick_1">
     <g id="line2d_7">
      <defs>
       <path id="mcda6282267" d="M 0 0 
L -3.5 0 
" style="stroke: #000000; stroke-width: 0.8"/>
      </defs>
      <g>
       <use xlink:href="#mcda6282267" x="20.5625" y="165.96" style="stroke: #000000; stroke-width: 0.8"/>
      </g>
     </g>
     <g id="text_7">
      <!-- 0 -->
      <g transform="translate(7.2 169.759219)scale(0.1 -0.1)">
       <use xlink:href="#DejaVuSans-30"/>
      </g>
     </g>
    </g>
    <g id="ytick_2">
     <g id="line2d_8">
      <g>
       <use xlink:href="#mcda6282267" x="20.5625" y="14.76" style="stroke: #000000; stroke-width: 0.8"/>
      </g>
     </g>
     <g id="text_8">
      <!-- 1 -->
      <g transform="translate(7.2 18.559219)scale(0.1 -0.1)">
       <use xlink:href="#DejaVuSans-31"/>
      </g>
     </g>
    </g>
   </g>
   <g id="line2d_9">
    <path d="M 35.780682 30.934974 
L 36.267761 31.578943 
L 37.181035 32.686941 
L 37.302804 32.606453 
L 37.424574 33.00419 
L 37.485459 32.980514 
L 37.728999 32.989986 
L 37.911653 33.10363 
L 38.094308 33.037337 
L 38.155193 32.952108 
L 38.216078 33.05628 
L 38.398733 33.368797 
L 38.459618 33.307235 
L 38.520503 33.24095 
L 38.764042 33.439822 
L 39.251121 33.231478 
L 39.372891 33.368797 
L 39.433776 33.278828 
L 39.616431 33.193599 
L 40.042625 33.013661 
L 40.164395 32.952108 
L 40.22528 32.890554 
L 40.286165 32.952108 
L 40.34705 33.018402 
L 40.407935 32.952108 
L 40.468819 32.885814 
L 40.529704 32.942636 
L 40.590589 32.999458 
L 40.651474 32.909489 
L 40.895014 32.668007 
L 41.077668 32.691682 
L 41.260323 32.625388 
L 41.321208 32.68221 
L 41.382093 32.611185 
L 41.625633 32.49754 
L 42.051827 32.587509 
L 42.173597 32.279733 
L 42.234482 32.346018 
L 42.356251 32.364962 
L 42.782446 32.132942 
L 43.147755 32.03351 
L 43.269525 32.199236 
L 43.391295 31.900922 
L 43.45218 32.000363 
L 43.634834 32.109267 
L 44.852533 31.61209 
L 45.035187 31.597877 
L 45.096072 31.503177 
L 45.156957 31.578943 
L 45.217842 31.654699 
L 45.278727 31.569471 
L 45.339612 31.479502 
L 45.400497 31.550527 
L 45.461382 31.621552 
L 45.522266 31.550527 
L 45.765806 31.413217 
L 45.948461 31.451095 
L 46.192 31.327979 
L 46.922619 31.42742 
L 47.166159 31.124375 
L 47.896778 30.835533 
L 48.201202 30.750305 
L 48.262087 30.584579 
L 48.322972 30.622458 
L 48.566512 30.669808 
L 48.688282 30.575107 
L 48.931821 30.380966 
L 49.175361 30.281534 
L 49.236246 30.182093 
L 49.297131 30.253119 
L 49.358015 30.319413 
L 49.601555 30.07793 
L 49.845095 30.319413 
L 50.027749 30.163159 
L 50.149519 30.144215 
L 50.271289 30.158418 
L 50.453944 30.229444 
L 50.636598 30.281534 
L 50.880138 30.423585 
L 51.062793 30.480407 
L 51.245447 30.660336 
L 51.306332 30.627189 
L 51.976066 31.739928 
L 52.280491 32.194495 
L 52.88934 33.998553 
L 54.167923 39.282888 
L 55.081196 45.196978 
L 56.298895 56.063943 
L 58.125442 77.996754 
L 61.717651 128.188411 
L 62.752694 139.751432 
L 64.153047 149.785028 
L 64.761896 151.863721 
L 64.822781 151.863721 
L 65.127206 152.261466 
L 65.248975 152.27567 
L 65.67517 151.972627 
L 66.527558 148.321894 
L 66.953753 145.457181 
L 67.806141 137.388635 
L 68.90207 123.235537 
L 70.545962 96.326177 
L 73.042243 53.26079 
L 74.138171 38.208027 
L 74.747021 31.526852 
L 75.721179 24.02652 
L 76.330028 21.516932 
L 76.695337 20.967664 
L 76.999762 20.877704 
L 77.121532 20.891907 
L 77.547726 21.980971 
L 78.09569 24.391119 
L 78.948079 31.204872 
L 79.617813 38.496869 
L 80.957281 57.479727 
L 82.174979 78.389759 
L 85.280109 131.531364 
L 86.193383 143.340609 
L 86.984886 150.840947 
L 87.65462 155.452898 
L 88.080815 157.313777 
L 88.628779 158.360226 
L 88.872318 158.450192 
L 88.933203 158.350755 
L 88.994088 158.407576 
L 89.054973 158.464397 
L 89.481167 157.346922 
L 90.150901 154.396979 
L 90.577096 151.593821 
L 91.551254 142.242075 
L 93.012492 123.140832 
L 94.35196 101.823587 
L 95.813197 78.086723 
L 96.300277 70.534292 
L 97.822399 49.477478 
L 99.222752 34.879282 
L 99.709831 31.138578 
L 100.927529 24.589991 
L 101.536378 22.516036 
L 101.962573 21.909946 
L 102.449652 21.171277 
L 102.571422 21.299124 
L 102.632307 21.228099 
L 102.814961 21.18548 
L 103.362926 21.412759 
L 103.54558 21.445906 
L 104.702393 23.254704 
L 105.554782 24.788864 
L 105.737437 25.148722 
L 106.77248 26.933845 
L 107.01602 27.199012 
L 107.13779 27.303175 
L 107.503099 27.734067 
L 107.746639 27.93294 
L 107.929293 28.074991 
L 108.294603 28.463273 
L 108.477257 28.373304 
L 108.842567 28.53903 
L 109.086107 28.53903 
L 109.207876 28.638471 
L 109.268761 28.728431 
L 109.329646 28.624259 
L 109.390531 28.515355 
L 109.451416 28.628999 
L 109.634071 28.77105 
L 109.816725 28.695284 
L 109.938495 28.628999 
L 110.24292 28.700024 
L 110.36469 28.510623 
L 110.425574 28.619527 
L 110.486459 28.728431 
L 110.547344 28.666877 
L 110.729999 28.472736 
L 110.790884 28.553233 
L 110.912654 28.605324 
L 111.034423 28.628999 
L 111.095308 28.685821 
L 111.156193 28.614796 
L 111.277963 28.567437 
L 111.643273 28.789984 
L 111.825927 28.922572 
L 112.008582 28.993597 
L 112.860971 29.983221 
L 113.34805 31.020203 
L 113.652474 31.75414 
L 114.565748 35.636885 
L 115.296367 39.66643 
L 116.57495 49.657407 
L 117.427338 58.199461 
L 118.279727 68.091006 
L 120.106274 92.613889 
L 122.359016 122.71468 
L 123.942023 140.177587 
L 125.037951 149.122119 
L 125.707685 152.952785 
L 126.377419 155.897994 
L 126.864499 157.219075 
L 127.716887 158.611184 
L 127.960427 158.75797 
L 128.082197 158.68221 
L 128.447506 158.440722 
L 128.751931 158.31761 
L 129.178125 157.654701 
L 129.665204 156.665073 
L 133.318298 146.413664 
L 133.500953 146.086946 
L 134.475112 144.434408 
L 134.962191 143.700473 
L 135.144846 143.563156 
L 135.3275 143.440045 
L 135.631925 143.392695 
L 135.81458 143.132266 
L 135.875464 143.222233 
L 135.936349 143.307464 
L 135.997234 143.250642 
L 136.179889 143.174881 
L 136.423429 143.312198 
L 136.606083 143.264847 
L 137.093162 143.615243 
L 137.458472 143.956166 
L 137.580242 144.102955 
L 137.762896 144.235536 
L 138.128206 144.54805 
L 138.43263 145.007351 
L 141.355106 148.932717 
L 141.476876 149.027419 
L 141.842185 149.429899 
L 141.963955 149.557745 
L 142.268379 149.879729 
L 142.451034 149.960226 
L 142.572804 150.026516 
L 142.694574 150.045456 
L 143.242538 150.30115 
L 144.094926 150.410056 
L 144.277581 150.28221 
L 144.703776 150.343765 
L 145.25174 150.116483 
L 145.556164 149.761353 
L 145.677934 149.922345 
L 145.738819 149.85132 
L 146.530323 149.11265 
L 146.652092 149.136325 
L 146.834747 148.927982 
L 147.017402 148.885366 
L 147.321826 148.601262 
L 147.443596 148.516032 
L 147.869791 148.151432 
L 149.026604 147.346472 
L 149.209258 147.185479 
L 149.391913 147.180745 
L 149.574568 147.138128 
L 149.878992 146.991343 
L 150.183417 146.764059 
L 150.487841 146.702503 
L 150.670496 146.854026 
L 150.914036 146.764059 
L 151.401115 146.645681 
L 151.58377 146.716709 
L 151.70554 146.726178 
L 151.949079 146.768793 
L 152.009964 146.702503 
L 152.070849 146.782998 
L 152.375273 147.010282 
L 152.557928 147.019751 
L 152.679698 147.019751 
L 153.227662 147.327531 
L 153.410317 147.327531 
L 153.897396 147.730011 
L 154.080051 147.763157 
L 154.262705 147.909944 
L 154.384475 147.9715 
L 154.6889 148.269809 
L 154.932439 148.265074 
L 155.236864 148.435535 
L 155.358634 148.558647 
L 155.602173 148.82381 
L 155.723943 148.880631 
L 155.906598 148.975333 
L 156.211022 149.003743 
L 156.454562 149.202615 
L 156.698102 149.325727 
L 156.941641 149.406223 
L 157.063411 149.51513 
L 157.185181 149.571951 
L 157.367836 149.671387 
L 157.67226 149.628771 
L 157.79403 149.690327 
L 157.9158 149.737678 
L 158.341994 149.671387 
L 158.646419 149.813439 
L 159.072613 149.799233 
L 159.194383 149.595626 
L 159.255268 149.633507 
L 159.437922 149.680857 
L 159.803232 149.354138 
L 159.864117 149.429899 
L 159.925002 149.505659 
L 159.985886 149.444103 
L 160.229426 149.302052 
L 160.351196 149.283111 
L 161.081815 148.643878 
L 161.264469 148.568118 
L 161.508009 148.497091 
L 161.751549 148.189313 
L 161.934203 148.156167 
L 162.177743 148.01885 
L 162.360398 147.791567 
L 163.334556 146.958196 
L 163.578096 147.024487 
L 163.821635 146.782998 
L 163.943405 146.797204 
L 164.12606 146.569922 
L 164.308715 146.508366 
L 164.674024 146.295288 
L 164.856679 146.356844 
L 165.100218 146.262141 
L 165.221988 146.233732 
L 165.404643 146.214791 
L 165.769952 146.153235 
L 166.013492 146.015918 
L 166.196147 146.18638 
L 166.317917 146.238466 
L 166.378801 146.304758 
L 166.439686 146.243202 
L 166.561456 146.210057 
L 166.804996 146.380519 
L 167.170305 146.683562 
L 167.47473 146.782998 
L 167.840039 147.194949 
L 168.083579 147.213889 
L 168.327118 147.67319 
L 168.509773 147.952559 
L 168.570658 147.947824 
L 168.875083 148.321894 
L 168.996852 148.449741 
L 170.70163 150.916708 
L 170.884284 151.044555 
L 171.249594 151.589087 
L 171.554018 151.674318 
L 171.614903 151.688523 
L 171.919328 152.204645 
L 172.101982 152.365637 
L 172.162867 152.27567 
L 172.223752 152.185705 
L 172.284637 152.251995 
L 172.467292 152.299346 
L 172.649947 152.299346 
L 172.771716 152.323022 
L 172.893486 152.19044 
L 173.015256 152.109944 
L 173.380565 152.138353 
L 174.172069 150.807801 
L 174.780918 149.264171 
L 175.694192 145.281983 
L 176.424811 140.670035 
L 177.520739 131.782323 
L 178.494897 121.810281 
L 180.747639 91.66214 
L 182.147992 71.220879 
L 183.670114 50.65177 
L 184.522503 41.607798 
L 185.070467 36.688071 
L 185.983741 31.185929 
L 186.59259 29.504987 
L 187.018784 29.362927 
L 187.262324 29.552337 
L 187.749403 30.755036 
L 188.236482 33.387732 
L 188.845331 37.980748 
L 189.515065 44.775558 
L 190.184799 53.715358 
L 191.158957 68.711299 
L 192.498425 92.826965 
L 195.66444 146.678828 
L 196.395059 155.135648 
L 197.125678 161.163382 
L 197.551872 163.32257 
L 197.978067 164.814115 
L 198.282491 165.226065 
L 198.465146 165.297091 
L 198.647801 165.126629 
L 199.13488 164.089651 
L 200.169923 157.711522 
L 201.204967 146.669358 
L 202.300895 131.019977 
L 203.579478 109.868456 
L 205.46691 77.812085 
L 206.745493 58.620882 
L 207.902306 44.789761 
L 208.69381 37.417268 
L 209.667968 30.802387 
L 209.911508 29.523922 
L 210.459472 27.307915 
L 210.946551 25.8874 
L 211.190091 25.546468 
L 211.5554 24.883564 
L 211.738055 24.727302 
L 211.92071 24.651545 
L 212.103365 24.561576 
L 212.407789 24.62787 
L 212.651329 24.656276 
L 212.833983 24.864621 
L 213.016638 24.935646 
L 213.564602 25.60329 
L 214.173451 26.597653 
L 214.295221 26.682882 
L 214.538761 27.199012 
L 214.7823 27.539935 
L 215.02584 28.041853 
L 216.608847 30.897087 
L 216.791502 31.190669 
L 217.217696 31.810962 
L 217.765661 32.440718 
L 218.0092 32.696413 
L 218.618049 33.439822 
L 218.739819 33.340382 
L 218.983359 33.837568 
L 219.226898 33.837568 
L 219.592208 34.178491 
L 219.774862 34.206898 
L 219.957517 34.363161 
L 220.140172 34.410511 
L 220.322827 34.732491 
L 220.383712 34.68514 
L 220.444596 34.63779 
L 220.505481 34.718287 
L 220.566366 34.798784 
L 220.627251 34.746694 
L 220.688136 34.694612 
L 220.992561 35.026064 
L 221.2361 35.201261 
L 221.35787 35.29123 
L 221.418755 35.28649 
L 221.540525 35.542185 
L 221.60141 35.499575 
L 221.723179 35.499575 
L 222.332028 35.854701 
L 222.392913 35.835758 
L 222.514683 36.081981 
L 222.575568 36.025168 
L 222.758223 35.89732 
L 223.062647 36.304528 
L 223.488842 36.735421 
L 223.610611 36.512873 
L 223.854151 36.858537 
L 224.036806 36.957969 
L 224.158576 36.972172 
L 224.70654 37.322567 
L 225.071849 37.516708 
L 225.254504 37.644556 
L 225.376274 37.658759 
L 225.498043 37.654028 
L 225.619813 37.649287 
L 226.046008 37.876575 
L 226.837511 37.84816 
L 226.959281 37.786606 
L 227.141936 37.80081 
L 227.324591 37.654028 
L 227.385476 37.668231 
L 227.629015 37.204192 
L 227.6899 37.24681 
L 227.81167 37.265754 
L 227.994325 37.10476 
L 228.176979 36.886943 
L 228.359634 36.901147 
L 228.603174 36.375554 
L 229.212023 35.428549 
L 229.333792 35.390662 
L 229.820872 34.192694 
L 230.003526 34.0317 
L 230.368836 33.160453 
L 230.612375 32.720088 
L 231.342994 31.14805 
L 232.256268 29.291902 
L 232.804232 28.344889 
L 233.108657 27.999234 
L 233.230426 28.003965 
L 233.473966 27.568342 
L 233.656621 27.535195 
L 233.77839 27.56361 
L 234.1437 27.549407 
L 234.326355 27.620432 
L 234.935204 28.434858 
L 235.361398 29.348724 
L 235.848477 31.09596 
L 236.457326 33.785477 
L 237.857679 43.871163 
L 239.014492 55.77037 
L 240.536615 75.330912 
L 243.70263 120.351883 
L 245.590062 141.49867 
L 246.503335 148.861691 
L 247.0513 152.109944 
L 247.721034 155.263495 
L 248.451652 157.427418 
L 248.695192 157.654701 
L 248.938732 158.047712 
L 249.730235 158.440722 
L 249.852005 158.36496 
L 250.095545 158.128208 
L 250.217315 158.104532 
L 250.643509 157.716257 
L 251.556782 156.243653 
L 252.043862 155.353462 
L 252.348286 154.714228 
L 252.470056 154.671613 
L 253.13979 153.270034 
L 253.26156 153.113777 
L 253.748639 152.394047 
L 254.905452 151.035085 
L 255.088107 151.011409 
L 255.392531 150.755716 
L 255.636071 150.741511 
L 255.879611 150.528433 
L 256.062265 150.632604 
L 256.184035 150.518963 
L 256.36669 150.414792 
L 256.853769 150.627869 
L 257.036424 150.414792 
L 257.158194 150.386381 
L 257.279963 150.362706 
L 257.401733 150.357971 
L 258.254122 149.789763 
L 258.497662 149.652447 
L 259.045626 148.956392 
L 259.958899 146.872965 
L 261.298367 140.939933 
L 261.907216 137.090326 
L 262.881375 129.178039 
L 264.403497 112.842074 
L 269.578714 45.372176 
L 270.613758 35.651097 
L 271.587916 28.752106 
L 272.318535 25.295513 
L 273.292693 22.445001 
L 273.597118 22.028321 
L 273.718888 21.88153 
L 273.840657 21.853124 
L 273.962427 21.682657 
L 274.023312 21.55955 
L 274.084197 21.640048 
L 274.266852 21.701601 
L 274.571276 21.763155 
L 274.632161 21.711073 
L 275.180125 22.468685 
L 275.301895 22.596524 
L 276.032514 24.07387 
L 276.215169 24.514226 
L 276.336939 24.623138 
L 276.763133 25.778487 
L 276.884903 26.100476 
L 277.371982 27.55887 
L 277.798176 28.595852 
L 278.407025 30.295737 
L 278.650565 30.878152 
L 279.015874 31.70205 
L 280.050918 33.771274 
L 280.172687 33.875446 
L 281.146846 35.101829 
L 281.268616 35.191789 
L 281.512155 35.381199 
L 281.633925 35.33384 
L 281.69481 35.262815 
L 281.93835 35.726854 
L 281.999235 35.674772 
L 282.06012 35.622682 
L 282.121004 35.698448 
L 282.303659 35.783676 
L 282.486314 35.783676 
L 282.608084 35.812083 
L 282.790738 35.755261 
L 282.912508 35.89732 
L 282.973393 35.807351 
L 283.156048 35.722123 
L 283.825782 35.381199 
L 283.886667 35.438012 
L 283.947552 35.371727 
L 284.069321 35.348052 
L 284.130206 35.395403 
L 284.434631 35.021332 
L 284.617286 35.002389 
L 284.79994 34.902957 
L 284.860825 34.950307 
L 284.92171 34.865069 
L 285.226135 34.571496 
L 285.469674 34.576237 
L 285.591444 34.524146 
L 285.713214 34.187963 
L 285.774099 34.277923 
L 285.834984 34.363161 
L 285.895868 34.292126 
L 286.382948 33.856502 
L 286.687372 33.667102 
L 286.809142 33.790218 
L 286.991797 33.543995 
L 287.174451 33.52032 
L 287.661531 33.217275 
L 287.783301 33.2883 
L 287.90507 33.018402 
L 287.965955 33.061012 
L 288.02684 33.098899 
L 288.209495 32.866879 
L 288.453034 32.805317 
L 288.574804 32.658535 
L 288.635689 32.549631 
L 288.696574 32.601713 
L 288.818344 32.582769 
L 288.940114 32.563834 
L 289.000999 32.615916 
L 289.061884 32.525956 
L 289.305423 32.322343 
L 289.488078 32.312871 
L 289.670733 32.166089 
L 289.853387 32.194495 
L 290.218697 31.957744 
L 290.401351 32.057185 
L 290.523121 31.863044 
L 290.584006 31.711521 
L 290.644891 31.758872 
L 290.766661 31.763612 
L 291.558165 31.33272 
L 291.679934 31.42268 
L 291.923474 31.162254 
L 292.167014 31.086497 
L 292.593208 30.944446 
L 292.714978 30.849737 
L 292.836748 30.783452 
L 292.897632 30.82133 
L 293.019402 30.612986 
L 293.080287 30.655604 
L 293.323827 30.764508 
L 293.445597 30.650864 
L 293.628251 30.551432 
L 294.2371 30.660336 
L 295.089489 31.181197 
L 295.333029 31.593146 
L 295.515683 31.773075 
L 296.489842 33.908593 
L 297.524885 37.80555 
L 298.011964 40.371952 
L 299.351432 50.192471 
L 300.508246 62.086946 
L 301.604174 75.752332 
L 304.28311 115.408476 
L 305.196383 128.21682 
L 305.987887 138.236212 
L 306.840276 146.891906 
L 307.631779 152.649741 
L 308.118859 154.946245 
L 308.484168 155.746471 
L 308.788592 156.111071 
L 308.910362 156.130011 
L 309.032132 156.09213 
L 309.458326 155.381871 
L 310.188945 151.83531 
L 311.163104 143.004419 
L 311.771953 135.461466 
L 312.806996 119.949401 
L 314.329119 92.519189 
L 316.46009 53.554364 
L 317.434249 39.240269 
L 318.347522 29.088298 
L 318.895487 24.750977 
L 319.626105 21.280181 
L 319.80876 20.872963 
L 319.991415 20.759319 
L 320.234954 20.584131 
L 320.417609 20.702506 
L 320.904688 21.658982 
L 321.878847 27.421559 
L 322.853005 37.322567 
L 323.705394 48.539936 
L 325.349286 74.530689 
L 327.602028 111.416819 
L 328.697956 126.715805 
L 329.672115 137.966314 
L 330.646273 146.45628 
L 331.316007 150.973528 
L 331.681316 152.810733 
L 332.35105 155.599684 
L 333.386094 157.512649 
L 333.873173 157.706787 
L 334.238482 157.56947 
L 334.542907 157.389538 
L 334.908216 156.906561 
L 335.395296 156.167892 
L 336.186799 154.49168 
L 336.491224 153.814566 
L 336.673879 153.39788 
L 336.978303 152.635535 
L 337.648037 150.911973 
L 337.952462 150.092808 
L 338.074231 149.974431 
L 338.500426 148.82381 
L 339.29193 147.133393 
L 340.144318 145.499797 
L 340.144318 145.499797 
" clip-path="url(#p986b5d040c)" style="fill: none; stroke: #1f77b4; stroke-width: 1.5; stroke-linecap: square"/>
   </g>
   <g id="line2d_10">
    <path d="M 35.780682 14.76 
L 59.951989 14.76 
L 60.073759 165.96 
L 69.997998 165.96 
L 70.119768 14.76 
L 83.575332 14.76 
L 83.697101 165.96 
L 94.169305 165.96 
L 94.291075 14.76 
L 120.958663 14.76 
L 121.080433 165.96 
L 179.77348 165.96 
L 179.89525 14.76 
L 193.107274 14.76 
L 193.229044 165.96 
L 203.823018 165.96 
L 203.944787 14.76 
L 242.545817 14.76 
L 242.667586 165.96 
L 265.012346 165.96 
L 265.134116 14.76 
L 303.552491 14.76 
L 303.674261 165.96 
L 313.659385 165.96 
L 313.781155 14.76 
L 327.114949 14.76 
L 327.236718 165.96 
L 340.144318 165.96 
L 340.144318 165.96 
" clip-path="url(#p986b5d040c)" style="fill: none; stroke: #000000; stroke-width: 1.5; stroke-linecap: square"/>
   </g>
   <g id="patch_3">
    <path d="M 20.5625 173.52 
L 20.5625 7.2 
" style="fill: none; stroke: #000000; stroke-width: 0.8; stroke-linejoin: miter; stroke-linecap: square"/>
   </g>
   <g id="patch_4">
    <path d="M 355.3625 173.52 
L 355.3625 7.2 
" style="fill: none; stroke: #000000; stroke-width: 0.8; stroke-linejoin: miter; stroke-linecap: square"/>
   </g>
   <g id="patch_5">
    <path d="M 20.5625 173.52 
L 355.3625 173.52 
" style="fill: none; stroke: #000000; stroke-width: 0.8; stroke-linejoin: miter; stroke-linecap: square"/>
   </g>
   <g id="patch_6">
    <path d="M 20.5625 7.2 
L 355.3625 7.2 
" style="fill: none; stroke: #000000; stroke-width: 0.8; stroke-linejoin: miter; stroke-linecap: square"/>
   </g>
  </g>
 </g>
 <defs>
  <clipPath id="p986b5d040c">
   <rect x="20.5625" y="7.2" width="334.8" height="166.32"/>
  </clipPath>
 </defs>
</svg>
